<svg width="120" height="32" viewBox="0 0 120 32" fill="none" xmlns="http://www.w3.org/2000/svg">
    <mask id="mask0_1447_7871" style="mask-type:luminance" maskUnits="userSpaceOnUse" x="4" y="6"
          width="17" height="20">
        <path d="M20.3929 6.37036H4V25.6296H20.3929V6.37036Z" fill="white"></path>
    </mask>
    <g mask="url(#mask0_1447_7871)">
        <path fill-rule="evenodd" clip-rule="evenodd"
              d="M4.9935 11.0549C4.44708 11.0549 4 11.5234 4 12.096V24.5885C4 25.161 4.44708 25.6295 4.9935 25.6295H14.4318C14.9782 25.6295 15.4253 25.161 15.4253 24.5885V12.096C15.4253 12.0926 15.4253 12.0892 15.4253 12.0858C15.4224 11.5239 14.9851 11.064 14.4478 11.0551C14.4425 11.055 14.4371 11.0549 14.4318 11.0549H14.4318C14.4372 11.0549 14.4425 11.055 14.4478 11.0551C14.9837 11.064 15.4201 11.5234 15.4253 12.0858C15.4253 12.0876 15.4253 12.0895 15.4253 12.0913V21.4188H10.896C9.83092 21.4188 8.96747 20.5603 8.96747 19.5015V11.0549H4.9935Z"
              fill="#07070A"></path>
        <path fill-rule="evenodd" clip-rule="evenodd"
              d="M9.96103 6.37036C9.41461 6.37036 8.96753 6.83883 8.96753 7.4114V11.0549H14.4319C14.9782 11.0549 15.4254 11.5213 15.4254 12.0913V21.4134H10.7497C9.75296 21.339 8.96753 20.5114 8.96753 19.5015V20.3723C8.96753 20.9449 9.41461 21.4134 9.96103 21.4134H10.7497C10.798 21.417 10.8468 21.4188 10.8961 21.4188H15.4254V21.4134H19.3994C19.9457 21.4134 20.3929 20.9449 20.3929 20.3723V7.4114C20.3929 6.83883 19.9457 6.37036 19.3994 6.37036H9.96103Z"
              fill="#07070A"></path>
    </g>
    <path d="M28.0848 9.4H30.4248V22H28.0848V9.4ZM39.0709 12.28C40.2829 12.28 41.2549 12.634 41.9869 13.342C42.7189 14.05 43.0849 15.1 43.0849 16.492V22H40.8349V16.78C40.8349 15.94 40.6369 15.31 40.2409 14.89C39.8449 14.458 39.2809 14.242 38.5489 14.242C37.7209 14.242 37.0669 14.494 36.5869 14.998C36.1069 15.49 35.8669 16.204 35.8669 17.14V22H33.6169V12.388H35.7589V13.63C36.1309 13.186 36.5989 12.85 37.1629 12.622C37.7269 12.394 38.3629 12.28 39.0709 12.28ZM54.7634 12.388L50.6414 22H48.3194L44.1974 12.388H46.5374L49.5254 19.516L52.6034 12.388H54.7634ZM60.2259 22.126C59.2539 22.126 58.3779 21.916 57.5979 21.496C56.8179 21.076 56.2059 20.494 55.7619 19.75C55.3299 18.994 55.1139 18.142 55.1139 17.194C55.1139 16.246 55.3299 15.4 55.7619 14.656C56.2059 13.912 56.8179 13.33 57.5979 12.91C58.3779 12.49 59.2539 12.28 60.2259 12.28C61.2099 12.28 62.0919 12.49 62.8719 12.91C63.6519 13.33 64.2579 13.912 64.6899 14.656C65.1339 15.4 65.3559 16.246 65.3559 17.194C65.3559 18.142 65.1339 18.994 64.6899 19.75C64.2579 20.494 63.6519 21.076 62.8719 21.496C62.0919 21.916 61.2099 22.126 60.2259 22.126ZM60.2259 20.2C61.0539 20.2 61.7379 19.924 62.2779 19.372C62.8179 18.82 63.0879 18.094 63.0879 17.194C63.0879 16.294 62.8179 15.568 62.2779 15.016C61.7379 14.464 61.0539 14.188 60.2259 14.188C59.3979 14.188 58.7139 14.464 58.1739 15.016C57.6459 15.568 57.3819 16.294 57.3819 17.194C57.3819 18.094 57.6459 18.82 58.1739 19.372C58.7139 19.924 59.3979 20.2 60.2259 20.2ZM67.5075 12.388H69.7575V22H67.5075V12.388ZM68.6415 10.804C68.2335 10.804 67.8915 10.678 67.6155 10.426C67.3395 10.162 67.2015 9.838 67.2015 9.454C67.2015 9.07 67.3395 8.752 67.6155 8.5C67.8915 8.236 68.2335 8.104 68.6415 8.104C69.0495 8.104 69.3915 8.23 69.6675 8.482C69.9435 8.722 70.0815 9.028 70.0815 9.4C70.0815 9.796 69.9435 10.132 69.6675 10.408C69.4035 10.672 69.0615 10.804 68.6415 10.804ZM82.1246 8.644V22H79.9646V20.758C79.5926 21.214 79.1306 21.556 78.5786 21.784C78.0386 22.012 77.4386 22.126 76.7786 22.126C75.8546 22.126 75.0206 21.922 74.2766 21.514C73.5446 21.106 72.9686 20.53 72.5486 19.786C72.1286 19.03 71.9186 18.166 71.9186 17.194C71.9186 16.222 72.1286 15.364 72.5486 14.62C72.9686 13.876 73.5446 13.3 74.2766 12.892C75.0206 12.484 75.8546 12.28 76.7786 12.28C77.4146 12.28 77.9966 12.388 78.5246 12.604C79.0526 12.82 79.5026 13.144 79.8746 13.576V8.644H82.1246ZM77.0486 20.2C77.5886 20.2 78.0746 20.08 78.5066 19.84C78.9386 19.588 79.2806 19.234 79.5326 18.778C79.7846 18.322 79.9106 17.794 79.9106 17.194C79.9106 16.594 79.7846 16.066 79.5326 15.61C79.2806 15.154 78.9386 14.806 78.5066 14.566C78.0746 14.314 77.5886 14.188 77.0486 14.188C76.5086 14.188 76.0226 14.314 75.5906 14.566C75.1586 14.806 74.8166 15.154 74.5646 15.61C74.3126 16.066 74.1866 16.594 74.1866 17.194C74.1866 17.794 74.3126 18.322 74.5646 18.778C74.8166 19.234 75.1586 19.588 75.5906 19.84C76.0226 20.08 76.5086 20.2 77.0486 20.2ZM94.104 17.248C94.104 17.404 94.092 17.626 94.068 17.914H86.526C86.658 18.622 87 19.186 87.552 19.606C88.116 20.014 88.812 20.218 89.64 20.218C90.696 20.218 91.566 19.87 92.25 19.174L93.456 20.56C93.024 21.076 92.478 21.466 91.818 21.73C91.158 21.994 90.414 22.126 89.586 22.126C88.53 22.126 87.6 21.916 86.796 21.496C85.992 21.076 85.368 20.494 84.924 19.75C84.492 18.994 84.276 18.142 84.276 17.194C84.276 16.258 84.486 15.418 84.906 14.674C85.338 13.918 85.932 13.33 86.688 12.91C87.444 12.49 88.296 12.28 89.244 12.28C90.18 12.28 91.014 12.49 91.746 12.91C92.49 13.318 93.066 13.9 93.474 14.656C93.894 15.4 94.104 16.264 94.104 17.248ZM89.244 14.08C88.524 14.08 87.912 14.296 87.408 14.728C86.916 15.148 86.616 15.712 86.508 16.42H91.962C91.866 15.724 91.572 15.16 91.08 14.728C90.588 14.296 89.976 14.08 89.244 14.08ZM101.719 12.28C102.931 12.28 103.903 12.634 104.635 13.342C105.367 14.05 105.733 15.1 105.733 16.492V22H103.483V16.78C103.483 15.94 103.285 15.31 102.889 14.89C102.493 14.458 101.929 14.242 101.197 14.242C100.369 14.242 99.7153 14.494 99.2353 14.998C98.7553 15.49 98.5153 16.204 98.5153 17.14V22H96.2653V12.388H98.4073V13.63C98.7793 13.186 99.2473 12.85 99.8113 12.622C100.375 12.394 101.011 12.28 101.719 12.28ZM114.366 21.478C114.102 21.694 113.778 21.856 113.394 21.964C113.022 22.072 112.626 22.126 112.206 22.126C111.15 22.126 110.334 21.85 109.758 21.298C109.182 20.746 108.894 19.942 108.894 18.886V14.26H107.31V12.46H108.894V10.264H111.144V12.46H113.718V14.26H111.144V18.832C111.144 19.3 111.258 19.66 111.486 19.912C111.714 20.152 112.044 20.272 112.476 20.272C112.98 20.272 113.4 20.14 113.736 19.876L114.366 21.478Z"
          fill="#07070A"></path>
</svg>
